{"title":"Star Trek IV -The Voyage Home (1986) - DvdRip x264 [=Faith=]","uid":12011698,"size":1931124803,"categoryP":"video","categoryS":"movies","magnet":"?xt=urn:btih:78dd4cf86c26531cb5c5da09c2b5291703ff73ce&amp;dn=Star+Trek+IV+-The+Voyage+Home+%281986%29+-+DvdRip+x264+%5B%3DFaith%3D%5D&amp;tr=udp%3A%2F%2Ftracker.openbittorrent.com%3A80&amp;tr=udp%3A%2F%2Fopen.demonii.com%3A1337&amp;tr=udp%3A%2F%2Ftracker.coppersurfer.tk%3A6969&amp;tr=udp%3A%2F%2Fexodus.desync.com%3A6969","seeders":0,"leechers":2,"uploader":"Faithwyn","files":6,"time":1434176728,"description":" Star Trek IV -The Voyage Home\n\n\nTo save Earth from an alien probe, Admiral Kirk and his fugitive crew go back in\ntime to 20th century Earth to retrieve the only beings who can communicate with it,\nhumpback whales.\n\n\nThe Film:\n\nDirected by: Leonard Nimoy\nProduced by: Harve Bennett\nScreenplay by: Steve Meerson\nPeter Krikes\nNicholas Meyer\nHarve Bennett\nStory by: Harve Bennett, Leonard Nimoy\nStars: William Shatner, Leonard Nimoy, DeForest Kelley,\nJames Doohan Walter Koenig, Nichelle Nichols, George Takei,\nCatherine Hicks, Mark Lenard, Jane Wyatt, Robin Curtis\nMusic by: Leonard Rosenman\nCinematography: Donald Peterman\nEdited by: Peter E. Berger\nDistributed by: Paramount Pictures\nRelease date: November 26, 1986\nRunning time: 122 minutes\nCountry: United States\nLanguages: English, French, Spanish, Portuguese\nSubtitles: English, French, Spanish, Portuguese\nIMDB Rating: 7.3\n\n\nGeneral:\n\nComplete name : Star Trek IV - The Voyage Home.m4v\nFormat : MPEG-4\nFormat profile : Base Media / Version 2\nCodec ID : mp42\nFile size : 1.80 GiB\nDuration : 1h 58mn\nOverall bit rate mode : Variable\nOverall bit rate : 2 167 Kbps\nEncoded date : UTC 2015-06-11 13:22:44\nTagged date : UTC 2015-06-11 14:22:14\nWriting application : HandBrake 0.9.9\n\n\nVideo:\n\nID : 1\nFormat : AVC\nFormat/Info : Advanced Video Codec\nFormat profile : &lt;a class=&quot;__cf_email__&quot; href=&quot;/cdn-cgi/l/email-protection&quot; data-cfemail=&quot;98d0f1fff0d8d4acb6a9&quot;&gt;[email&amp;#160;protected]&lt;/a&gt;&lt;script data-cfhash='f9e31' type=&quot;text/javascript&quot;&gt;\n/* &lt;![CDATA[ */!function(){try{var t=&quot;currentScript&quot;in document?document.currentScript:function(){for(var t=document.getElementsByTagName(&quot;script&quot;),e=t.length;e--;)if(t[e].getAttribute(&quot;data-cfhash&quot;))return t[e]}();if(t&amp;&amp;t.previousSibling){var e,r,n,i,c=t.previousSibling,a=c.getAttribute(&quot;data-cfemail&quot;);if(a){for(e=&quot;&quot;,r=parseInt(a.substr(0,2),16),n=2;a.length-n;n+=2)i=parseInt(a.substr(n,2),16)^r,e+=String.fromCharCode(i);e=document.createTextNode(e),c.parentNode.replaceChild(e,c)}t.parentNode.removeChild(t);}}catch(u){}}()/* ]]&gt; */&lt;/script&gt;\nFormat settings, CABAC : Yes\nFormat settings, ReFrames : 8 frames\nCodec ID : avc1\nCodec ID/Info : Advanced Video Coding\nDuration : 1h 58mn\nBit rate : 1 126 Kbps\nWidth : 720 pixels\nHeight : 368 pixels\nDisplay aspect ratio : 2.35:1\nOriginal display aspect ratio : 2.35:1\nFrame rate mode : Variable\nFrame rate : 23.976 fps\nMinimum frame rate : 19.965 fps\nMaximum frame rate : 29.970 fps\nColor space : YUV\nChroma subsampling : 4:2:0\nBit depth : 8 bits\nScan type : Progressive\nBits/(Pixel*Frame) : 0.177\nStream size : 957 MiB (52%)\nWriting library : x264 core 130 r2273 b3065e6\nEncoding settings : (see .nfo file for details)\nColor primaries : BT.601 NTSC\nTransfer characteristics : BT.709\nMatrix coefficients : BT.601\n\n\nAudio 1:\n\nID : 2\nFormat : AC-3\nFormat/Info : Audio Coding 3\nMode extension : CM (complete main)\nFormat settings, Endianness : Big\nCodec ID : ac-3\nDuration : 1h 58mn\nBit rate mode : Constant\nBit rate : 448 Kbps\nChannel(s) : 6 channels\nChannel positions : Front: L C R, Side: L R, LFE\nSampling rate : 48.0 KHz\nBit depth : 16 bits\nCompression mode : Lossy\nStream size : 381 MiB (21%)\nLanguage : English\n\n      *See .nfo file for additional languages and subtitle info*","torrent":{"xt":"urn:btih:78dd4cf86c26531cb5c5da09c2b5291703ff73ce","amp;dn":"Star+Trek+IV+-The+Voyage+Home+%281986%29+-+DvdRip+x264+%5B%3DFaith%3D%5D","amp;tr":["udp%3A%2F%2Ftracker.openbittorrent.com%3A80","udp%3A%2F%2Fopen.demonii.com%3A1337","udp%3A%2F%2Ftracker.coppersurfer.tk%3A6969","udp%3A%2F%2Fexodus.desync.com%3A6969"],"infoHash":"78dd4cf86c26531cb5c5da09c2b5291703ff73ce","infoHashBuffer":{"type":"Buffer","data":[120,221,76,248,108,38,83,28,181,197,218,9,194,181,41,23,3,255,115,206]},"announce":[],"urlList":[]}}